<?xml version="1.0" encoding="UTF-8" standalone="no"?>
<svg width="41px" height="62px" viewBox="0 0 41 62" version="1.1" xmlns="http://www.w3.org/2000/svg" xmlns:xlink="http://www.w3.org/1999/xlink">
    <!-- Generator: Sketch 3.8.3 (29802) - http://www.bohemiancoding.com/sketch -->
    <title>sign</title>
    <desc>Created with Sketch.</desc>
    <defs></defs>
    <g id="Page-1" stroke="none" stroke-width="1" fill="none" fill-rule="evenodd">
        <g id="sign">
            <g>
                <path d="M31.9794,36.2448 L26.722,35.81 C24.9523,38.1315 25.0243,38.7537 23.9211,41.7868 C23.2022,38.921 22.4057,36.7936 20.4229,35.1571 L15.6337,36.6811 C21.4204,44.3964 20.6119,54.1714 10.0671,57.6946 C6.5705,58.8624 7.3529,59.4821 10.5637,59.1896 C12.3906,59.0232 14.338,58.5288 16.4413,57.6121 C16.3478,60.4921 10.287,62.8565 18.5914,60.1482 C20.0861,59.6607 21.3492,58.626 22.999,57.6121 C23.4446,59.1932 25.398,60.4317 28.0974,61.311 C35.4505,63.7063 27.0103,59.0994 28.3996,57.6121 C30.3027,57.3584 32.2541,58.0157 34.3787,58.1909 C39.7892,58.6374 37.2196,57.2382 33.9932,56.2622 C22.9534,52.9247 28.2655,42.9297 31.9794,36.2448" id="Fill-13" fill="#403F41"></path>
                <polygon id="Fill-14" fill="#A6A9AB" points="16.5187 9.244 14.8344 18.8877 15.3973 18.8262 19.7845 15.157 23.5517 20.4453 24.0949 19.8265"></polygon>
                <polygon id="Fill-15" fill="#A6A9AB" points="31.3501 15.9252 31.4695 21.133 25.5643 20.8102 25.6964 21.548 37.5342 22.1677 31.6265 15.4895"></polygon>
                <polygon id="Fill-16" fill="#A6A9AB" points="21.9998 30.2164 16.4362 27.7324 19.7363 21.6537 18.8907 21.423 12.3033 33.6233 22.3221 30.7266"></polygon>
                <polygon id="Fill-17" fill="#7CB100" points="10.7389 34.9068 18.2569 20.9822 6.2397 17.7091 0.2393 28.3367 0.7422 29.6486 10.7567 35.7099 22.5409 32.183 22.1735 31.6005"></polygon>
                <polygon id="Fill-18" fill="#7CB100" points="16.0017 7.0519 25.2134 19.9189 33.4291 10.5578 26.5131 0.5019 25.1139 0.3775 15.2726 6.7157 13.2688 18.8517 13.9539 18.7771"></polygon>
                <polygon id="Fill-19" fill="#7CB100" points="39.517 22.9291 23.7142 22.1022 25.9059 34.3629 38.0793 35.2303 39.0499 34.2143 40.2351 22.5688 31.9993 13.4319 31.6308 14.0138"></polygon>
            </g>
        </g>
    </g>
</svg>